<?xml version="1.0" encoding="utf-8"?>
<!-- Generator: Adobe Illustrator 23.0.1, SVG Export Plug-In . SVG Version: 6.00 Build 0)  -->
<svg version="1.1" id="LogoOfc_1_" xmlns="http://www.w3.org/2000/svg" xmlns:xlink="http://www.w3.org/1999/xlink" x="0px" y="0px"
	 viewBox="0 0 720 720" style="enable-background:new 0 0 720 720;" xml:space="preserve">
<style type="text/css">
	@font-face {
  		font-family: 'Baloo Bhai 2';
  		font-style: normal;
  		font-weight: 800;
  		src: url(https://fonts.gstatic.com/s/baloobhai2/v4/sZlcdRSL-z1VEWZ4YNA7Y5IP0fjyh1x9.woff2) format('woff2');
  		unicode-range: U+0000-00FF, U+0131, U+0152-0153, U+02BB-02BC, U+02C6, U+02DA, U+02DC, U+2000-206F, U+2074, U+20AC, U+2122, U+2191, U+2193, U+2212, U+2215, U+FEFF, U+FFFD;
	}
	.st0{fill:#23272A;}
	.st1{fill-rule:evenodd;clip-rule:evenodd;fill:#FFBF5B;}
	.st2{fill:#F6F6F8;}
	.st3{fill:#216AA7;}
	.st4{fill-rule:evenodd;clip-rule:evenodd;fill:#23272A;}
	.st5{font-family:'Baloo Bhai 2';}
	.st6{font-size:132.7612px;}
	.st7{letter-spacing:5.05;}
</style>
<g id="Logo_1_">
	<g id="Elipse_1">
		<g>
			<circle class="st0" cx="360.9" cy="300.45" r="299.46"/>
		</g>
	</g>
	<g id="Coruja_1_">
		<polygon class="st1" points="411.04,436.1 410.3,435.47 495.74,336.17 496.48,336.79 		"/>
		<g id="Corpo_2_">
			<g id="Pes">
				<g>
					<path class="st2" d="M424.19,486.81c-1.42-3-4.62-5.41-10.44-6.64c-9.23-1.96-15.76,2.74-25.63,0.95
						c-3.35-0.61-5.44-1.51-5.7-2.85c-0.3-1.61,2.15-3.3,2.85-3.8c2.64-1.89,7.55-9.77,11.39-18.99c1.71-4.11,7.83-20.04,2.85-23.73
						c-3.44-2.55-11.04,1.58-18.04,6.64c-24.01,17.4-36.81,51.72-28.48,58.85c1.05,0.9,5.18,1.46,10.44,0.95
						c3.86-0.38,7.83-1.17,9.49-1.9c1.38-0.61,3.51-1.72,5.7-0.95c2.26,0.79,4.15,3.45,3.8,5.7c-0.28,1.79-2.1,2.65-3.8,4.75
						c-1.46,1.81-2.08,3.26-1.9,3.8c1.03,3.05,12.71,4.02,18.99-1.9c1.08-1.02,4.75-4.84,3.8-8.54c-0.42-1.64-2.26-3.06-1.9-3.8
						c0.35-0.71,2.16-0.19,4.75,0c3.42,0.25,5.57-0.43,6.64,0.95c0.82,1.05,0.86,2.91,0,3.8c-0.88,0.9-2.53,0.31-2.85,0.95
						c-0.39,0.79,1.41,2.98,3.8,3.8c4.3,1.47,9.62-1.89,12.34-5.7C423.88,496.92,426.52,491.75,424.19,486.81z"/>
				</g>
			</g>
			<g id="Corpo">
				<g>
					<path class="st3" d="M503.93,103.31c-3.11-3.63-7.65-7.56-13.29-11.39c-8.06-5.47-16.75-9.22-28.48-12.34
						c-27.59-7.34-49.86-5.9-63.6-1.9c-5.58,1.62-10.18,3.5-14.24,5.7c-14.95,8.11-23.32,19.84-29.43,30.38
						c-10.12,17.46-22.99,45.93-26.58,61.7c-1.27,5.6-5.59,13.21-8.54,17.09c-0.58,0.76-1.22,1.39-1.9,1.9
						c-1.79,1.34-4.23,1.82-4.75,1.9c-3.88,0.59-11.04,3.98-18.04,7.59c-8.77,4.53-18.54,11.86-28.48,23.73
						c-14.71,17.58-20.59,36.33-24.68,55.06c-4.94,22.6-5.56,44.99-8.54,64.55c-0.98,6.41-1.72,23.58-1.9,37.02
						c-0.08,6.44,0.12,12.95,2.85,20.88c4.09,11.91,12.62,19.55,17.09,27.53c6.23,11.13,8.56,22.28,8.54,27.53
						c-0.03,6.72-1.56,14.21-4.75,20.88c-2.59,5.43-5.82,9.56-4.75,15.19c0.83,4.34,5.54,7.82,4.75,12.34
						c-0.5,2.84-2.75,3.99-3.8,6.64c-0.52,1.32-0.92,5.24,0,9.49c0.44,2.03,2,4.62,1.9,7.59c-0.08,2.37-1.28,3.97-0.95,6.64
						c0.43,3.48,2.99,5.95,3.8,6.64c7.26,6.23,24.13-1.29,33.22-5.7c23.8-11.52,48.49-26.2,56.96-34.17
						c12.48-11.76,25.89-28.43,33.22-44.62c2.9-6.41,7.43-15.16,7.59-16.14c0.09-0.54,0.37-2.52,1.9-3.8
						c0.89-0.74,2.12-1.02,2.39-1.07c3.03-0.56,10.57-5.08,17.54-9.37c10.67-6.56,25.38-18.05,37.97-32.27
						c14.63-16.52,28.94-39.91,39.87-73.09c5.76-17.48,7.59-32.3,11.39-50.31c5.85-27.72,18.3-79.94,19.93-119.61
						C518.85,138.89,517.27,118.86,503.93,103.31z"/>
				</g>
			</g>
		</g>
		<g id="Rosto_1_">
			<g id="Forma_15">
				<g>
					<path class="st2" d="M408.87,87.48c-10.07-0.34-19.89,2.04-28.43,7.11c-5.92,3.51-12.15,8.96-17.77,17.77
						c-13.98,21.91-15.68,56.73,3.55,81.74c9.41,12.24,22.76,20.66,37.91,24.88c2.33,0.92,4.7,1.71,7.11,2.37
						c6.93,1.89,14.08,2.67,21.32,2.37V101.69C424.66,96.95,416.77,92.22,408.87,87.48z"/>
				</g>
			</g>
			<g id="Forma_15_1_">
				<g>
					<path class="st2" d="M500.85,112.35c-5.62-8.81-11.85-14.26-17.77-17.77c-8.54-5.07-18.36-7.45-28.43-7.11
						c-7.9,4.74-15.8,9.48-23.69,14.22v122.02c7.24,0.3,14.4-0.48,21.32-2.37c2.41-0.66,4.78-1.45,7.11-2.37
						c15.15-4.22,28.5-12.64,37.91-24.88C516.53,169.08,514.83,134.26,500.85,112.35z"/>
				</g>
			</g>
		</g>
		<g id="Olhos_x2F_Bico_1_">
			<g id="Elipse_3">
				<g>
					<ellipse class="st4" cx="401.12" cy="144.94" rx="7.67" ry="10.02"/>
				</g>
			</g>
			<g id="Elipse_3_1_">
				<g>
					<ellipse class="st4" cx="462.76" cy="144.94" rx="7.71" ry="10.02"/>
				</g>
			</g>
			<g id="Forma_14">
				<g>
					<path class="st0" d="M436.12,173.96c-1.46-2.26-3.07-3.4-4.74-3.55c-2.98-0.27-5.23,2.55-5.92,3.55
						c-2.45,3.56-1.78,8.15,0,14.22c2.45,8.33,4.32,13.04,5.92,13.03c2.03-0.01,3.8-5.36,5.92-15.4
						C437.96,182.68,438.72,178,436.12,173.96z"/>
				</g>
			</g>
		</g>
	</g>
	<g id="Constelacao">
		<g>
			<path class="st1" d="M413.17,421.64c-7.07-1.5-14,2.95-15.48,9.93c-0.4,1.89-0.35,3.77,0.07,5.54l-24.26,3.4
				c-0.37-5.65-4.48-10.61-10.36-11.86c-4.04-0.86-8.03,0.23-10.99,2.62l-11.86-15.02c2.94-1.78,5.17-4.7,5.93-8.31
				c1.48-6.98-3.05-13.85-10.12-15.35c-4.38-0.93-8.7,0.43-11.71,3.25l-31.69-41.32c3.07-1.77,5.41-4.75,6.19-8.46
				c1.48-6.98-3.05-13.85-10.12-15.35c-2.52-0.53-5.01-0.3-7.25,0.52l-21.19-83.54c4.39-1.32,7.93-4.9,8.94-9.65
				c1.48-6.98-3.05-13.85-10.12-15.35c-5.91-1.25-11.72,1.66-14.33,6.73l-48.06-23.77c0.16-0.48,0.3-0.96,0.41-1.47
				c1.48-6.98-3.05-13.85-10.12-15.35c-7.07-1.5-14,2.95-15.48,9.93c-1.48,6.98,3.05,13.85,10.12,15.35
				c1.87,0.4,3.74,0.37,5.49-0.01l-2.66,30.46c-5.71,0.34-10.71,4.38-11.93,10.18c-1.48,6.98,3.05,13.85,10.12,15.35
				c0.41,0.09,0.82,0.15,1.23,0.2l16.35,139.29c-5.36,0.66-9.95,4.58-11.12,10.11c-1.04,4.92,0.91,9.78,4.63,12.75l-22.92,37.21
				c-1.06-0.56-2.2-0.99-3.43-1.25c-7.07-1.5-14,2.95-15.48,9.93c-1.48,6.98,3.05,13.85,10.12,15.35
				c6.91,1.46,13.67-2.76,15.36-9.47l23.76,5.03c-1.18,6.82,3.29,13.42,10.2,14.88c7.07,1.5,14-2.95,15.48-9.93
				c1.45-6.82-2.86-13.53-9.66-15.23l2.79-13.16c6.9,1.2,13.56-3.18,15-10.01c1.48-6.98-3.05-13.85-10.12-15.35
				c-3.36-0.71-6.69-0.07-9.42,1.54l-5.96-9.03c2.6-1.81,4.55-4.54,5.25-7.86c1.48-6.98-3.05-13.85-10.12-15.35
				c-1.14-0.24-2.28-0.31-3.4-0.26l-16.33-139.14c6.25,0.26,11.94-3.95,13.27-10.19c1.48-6.98-3.05-13.85-10.12-15.35
				c-0.86-0.18-1.72-0.27-2.57-0.29l2.68-30.67c3.65-1.08,6.72-3.73,8.24-7.31l47.98,23.73c-0.31,0.74-0.57,1.52-0.74,2.34
				c-1.48,6.98,3.05,13.85,10.12,15.35c1.92,0.41,3.82,0.36,5.61-0.04l21.22,83.67c-3.62,1.64-6.44,4.88-7.32,9.04
				c-1.48,6.98,3.05,13.85,10.12,15.35c2.97,0.63,5.9,0.2,8.42-1.01l31.87,41.56c-1.5,1.63-2.6,3.66-3.09,5.98
				c-1.48,6.98,3.05,13.85,10.12,15.35c3.07,0.65,6.12,0.18,8.7-1.14l11.98,15.17c-1.85,1.73-3.2,4.02-3.77,6.67
				c-1.48,6.98,3.05,13.85,10.12,15.35c7.07,1.5,14-2.95,15.48-9.93c0.18-0.85,0.27-1.69,0.28-2.53l24.47-3.43
				c1.36,4.34,5,7.86,9.81,8.88c7.07,1.5,14-2.95,15.48-9.93S420.24,423.14,413.17,421.64z M208.7,433.49l5.96,9.03
				c-2.6,1.81-4.55,4.54-5.25,7.86c-1.45,6.82,2.86,13.53,9.66,15.23l-2.79,13.16c-6.74-1.17-13.23,2.99-14.88,9.54l-23.76-5.03
				c0.91-5.28-1.56-10.41-5.94-13.15l22.86-37.11c1.38,0.95,2.97,1.64,4.72,2.01C202.65,435.74,205.97,435.1,208.7,433.49z
				 M585.26,151.87c-7.07-1.5-14,2.95-15.48,9.93c-1.12,5.29,1.21,10.5,5.48,13.38l-21.78,28.64c-1.35-0.9-2.89-1.57-4.57-1.92
				c-7.07-1.5-14,2.95-15.48,9.93c-1.25,5.9,1.8,11.7,7.03,14.27l-40.36,96.66c-0.48-0.16-0.97-0.3-1.48-0.41
				c-7.07-1.5-14,2.95-15.48,9.93c-1.48,6.98,3.05,13.85,10.12,15.35c7.07,1.5,14-2.95,15.48-9.93c1.3-6.16-2.07-12.22-7.73-14.6
				l40.33-96.6c0.71,0.28,1.44,0.52,2.21,0.68c7.07,1.5,14-2.95,15.48-9.93c1.06-4.98-0.96-9.9-4.77-12.86l21.82-28.69
				c1.16,0.66,2.44,1.17,3.82,1.46c7.07,1.5,14-2.95,15.48-9.93C596.86,160.24,592.33,153.36,585.26,151.87z"/>
		</g>
	</g>
</g>
<g id="CEOS">
	<text transform="matrix(0.99 0 0 1.03 197.0117 716.5547)" class="st0 st5 st6 st7">CEOS</text>
</g>
</svg>
