<?xml version="1.0" encoding="utf-8"?>
<!-- Generator: Adobe Illustrator 23.0.1, SVG Export Plug-In . SVG Version: 6.00 Build 0)  -->
<svg version="1.1" id="LogoOfc__Branco__x28_NoName_x29__1_"
	 xmlns="http://www.w3.org/2000/svg" xmlns:xlink="http://www.w3.org/1999/xlink" x="0px" y="0px" viewBox="0 0 720 720"
	 style="enable-background:new 0 0 720 720;" xml:space="preserve">
<style type="text/css">
	.st0{fill:#F6F6F8;}
	.st1{fill-rule:evenodd;clip-rule:evenodd;fill:#FFBF5B;}
	.st2{fill:#23272A;}
	.st3{fill:#216AA7;}
	.st4{fill-rule:evenodd;clip-rule:evenodd;fill:#F6F6F8;}
	.st5{fill-rule:evenodd;clip-rule:evenodd;fill:#23272A;}
</style>
<g id="Elipse_1">
	<g>
		<circle class="st0" cx="360.9" cy="360.25" r="357.87"/>
	</g>
</g>
<g id="Coruja_1_">
	<polygon class="st1" points="420.82,522.35 419.94,521.6 522.04,402.93 522.93,403.68 	"/>
	<g id="Corpo_2_">
		<g id="Pés">
			<g>
				<path class="st2" d="M436.53,582.95c-1.7-3.59-5.52-6.46-12.48-7.94c-11.04-2.35-18.83,3.27-30.63,1.13
					c-4-0.72-6.51-1.81-6.81-3.4c-0.36-1.92,2.57-3.94,3.4-4.54c3.15-2.26,9.02-11.68,13.61-22.69c2.05-4.91,9.36-23.94,3.4-28.36
					c-4.11-3.05-13.2,1.89-21.55,7.94c-28.69,20.8-43.99,61.81-34.03,70.33c1.26,1.07,6.19,1.75,12.48,1.13
					c4.61-0.45,9.36-1.39,11.34-2.27c1.65-0.73,4.19-2.05,6.81-1.13c2.7,0.95,4.96,4.12,4.54,6.81c-0.34,2.15-2.51,3.16-4.54,5.67
					c-1.74,2.16-2.49,3.89-2.27,4.54c1.23,3.64,15.19,4.8,22.69-2.27c1.29-1.22,5.67-5.78,4.54-10.21c-0.5-1.97-2.7-3.66-2.27-4.54
					c0.42-0.85,2.59-0.23,5.67,0c4.09,0.3,6.66-0.52,7.94,1.13c0.98,1.26,1.03,3.48,0,4.54c-1.05,1.07-3.02,0.37-3.4,1.13
					c-0.47,0.94,1.68,3.56,4.54,4.54c5.14,1.76,11.5-2.26,14.75-6.81C436.16,595.04,439.32,588.85,436.53,582.95z"/>
			</g>
		</g>
		<g id="Corpo">
			<g>
				<path class="st3" d="M531.82,124.66c-3.72-4.34-9.14-9.04-15.88-13.61c-9.63-6.54-20.02-11.02-34.03-14.75
					c-32.97-8.77-59.58-7.05-76-2.27c-6.66,1.94-12.17,4.18-17.02,6.81c-17.87,9.69-27.86,23.71-35.17,36.3
					c-12.1,20.86-27.47,54.89-31.76,73.73c-1.52,6.69-6.68,15.79-10.21,20.42c-0.69,0.91-1.46,1.66-2.27,2.27
					c-2.14,1.6-5.05,2.17-5.67,2.27c-4.63,0.7-13.19,4.75-21.55,9.08c-10.48,5.41-22.16,14.17-34.03,28.36
					c-17.58,21-24.61,43.41-29.49,65.79c-5.9,27.01-6.64,53.76-10.21,77.14c-1.17,7.66-2.06,28.17-2.27,44.24
					c-0.1,7.7,0.14,15.47,3.4,24.96c4.89,14.24,15.08,23.36,20.42,32.9c7.45,13.3,10.23,26.63,10.21,32.9
					c-0.03,8.03-1.87,16.99-5.67,24.96c-3.1,6.49-6.95,11.43-5.67,18.15c0.99,5.19,6.62,9.35,5.67,14.75
					c-0.59,3.4-3.29,4.76-4.54,7.94c-0.62,1.58-1.09,6.27,0,11.34c0.52,2.43,2.39,5.52,2.27,9.08c-0.09,2.83-1.53,4.74-1.13,7.94
					c0.51,4.16,3.57,7.11,4.54,7.94c8.67,7.45,28.83-1.54,39.7-6.81c28.44-13.77,57.95-31.31,68.06-40.84
					c14.91-14.05,30.94-33.98,39.7-53.32c3.47-7.66,8.88-18.11,9.08-19.28c0.11-0.64,0.44-3.01,2.27-4.54
					c1.06-0.89,2.54-1.22,2.86-1.28c3.62-0.67,12.63-6.07,20.96-11.2c12.75-7.84,30.33-21.57,45.38-38.57
					c17.48-19.74,34.58-47.7,47.64-87.35c6.88-20.89,9.07-38.6,13.61-60.12c6.99-33.13,21.87-95.53,23.82-142.93
					C549.65,167.18,547.76,143.25,531.82,124.66z"/>
			</g>
		</g>
	</g>
	<g id="Rosto">
		<g>
			<path class="st4" d="M528.15,135.47c-6.71-10.52-14.16-17.04-21.24-21.24c-10.21-6.06-21.95-8.9-33.98-8.49
				c-9.12,5.47-18.24,10.94-27.35,16.41c-9.12-5.47-18.24-10.94-27.35-16.41c-12.03-0.41-23.77,2.44-33.98,8.49
				c-7.07,4.2-14.52,10.71-21.24,21.24c-16.7,26.18-18.74,67.79,4.25,97.68c11.25,14.63,27.2,24.69,45.3,29.73
				c2.78,1.1,5.61,2.04,8.49,2.83c7.97,2.18,16.2,3.11,24.52,2.85c8.33,0.26,16.55-0.67,24.52-2.85c2.88-0.79,5.71-1.73,8.49-2.83
				c18.1-5.04,34.05-15.1,45.3-29.73C546.88,203.26,544.85,161.65,528.15,135.47z"/>
		</g>
	</g>
	<g id="Olhos_x2F_Bico">
		<g>
			<path class="st5" d="M408.97,162.43c-5.06,0-9.16,5.36-9.16,11.97c0,6.61,4.1,11.97,9.16,11.97s9.16-5.36,9.16-11.97
				C418.13,167.79,414.03,162.43,408.97,162.43z M482.62,162.43c-5.09,0-9.22,5.36-9.22,11.97c0,6.61,4.13,11.97,9.22,11.97
				c5.09,0,9.22-5.36,9.22-11.97C491.84,167.79,487.71,162.43,482.62,162.43z M445.12,204.84c-3.56-0.32-6.25,3.04-7.08,4.25
				c-2.93,4.26-2.13,9.74,0,16.99c2.93,9.96,5.16,15.58,7.08,15.57c2.43-0.01,4.54-6.41,7.08-18.4c0.79-3.73,1.7-9.33-1.42-14.16
				C449.04,206.38,447.12,205.02,445.12,204.84z"/>
		</g>
	</g>
</g>
<g id="Constelação">
	<g>
		<path class="st1" d="M423.37,505.07c-8.45-1.79-16.73,3.52-18.5,11.87c-0.48,2.26-0.41,4.51,0.08,6.62l-28.99,4.06
			c-0.45-6.75-5.36-12.68-12.38-14.17c-4.83-1.02-9.6,0.28-13.13,3.13l-14.17-17.95c3.51-2.13,6.17-5.62,7.09-9.93
			c1.77-8.34-3.65-16.56-12.1-18.35c-5.24-1.11-10.4,0.51-14,3.89l-37.87-49.38c3.67-2.11,6.46-5.67,7.4-10.11
			c1.77-8.34-3.65-16.56-12.1-18.35c-3.01-0.64-5.99-0.36-8.67,0.62L240.7,297.2c5.24-1.58,9.47-5.85,10.68-11.54
			c1.77-8.34-3.65-16.56-12.1-18.35c-7.07-1.5-14,1.98-17.12,8.04l-57.43-28.41c0.19-0.57,0.36-1.15,0.49-1.75
			c1.77-8.34-3.65-16.56-12.1-18.35c-8.45-1.79-16.73,3.52-18.5,11.87c-1.77,8.34,3.65,16.56,12.1,18.35
			c2.24,0.47,4.47,0.44,6.56-0.01l-3.18,36.4c-6.82,0.41-12.79,5.24-14.26,12.17c-1.77,8.34,3.65,16.56,12.1,18.35
			c0.49,0.1,0.98,0.18,1.47,0.24l19.54,166.45c-6.41,0.79-11.89,5.48-13.29,12.08c-1.25,5.88,1.09,11.69,5.53,15.24l-27.39,44.47
			c-1.26-0.66-2.63-1.18-4.09-1.49c-8.45-1.79-16.73,3.52-18.5,11.87c-1.77,8.34,3.65,16.56,12.1,18.35
			c8.26,1.75,16.34-3.29,18.35-11.31l28.39,6.01c-1.41,8.15,3.93,16.03,12.19,17.78c8.45,1.79,16.73-3.52,18.5-11.87
			c1.73-8.15-3.42-16.17-11.54-18.2l3.33-15.72c8.25,1.44,16.2-3.8,17.93-11.96c1.77-8.34-3.65-16.56-12.1-18.35
			c-4.02-0.85-7.99-0.08-11.26,1.85l-7.12-10.79c3.11-2.16,5.43-5.43,6.27-9.4c1.77-8.34-3.65-16.56-12.1-18.35
			c-1.37-0.29-2.73-0.38-4.06-0.31l-19.52-166.27c7.47,0.31,14.27-4.71,15.85-12.18c1.77-8.34-3.65-16.56-12.1-18.35
			c-1.03-0.22-2.06-0.33-3.07-0.34l3.2-36.65c4.36-1.3,8.03-4.45,9.85-8.73l57.34,28.36c-0.37,0.89-0.68,1.82-0.89,2.79
			c-1.77,8.34,3.65,16.56,12.1,18.35c2.29,0.48,4.56,0.43,6.7-0.04l25.36,99.99c-4.33,1.96-7.7,5.84-8.75,10.8
			c-1.77,8.34,3.65,16.56,12.1,18.35c3.54,0.75,7.05,0.24,10.07-1.21l38.09,49.67c-1.79,1.95-3.1,4.38-3.69,7.14
			c-1.77,8.34,3.65,16.56,12.1,18.35c3.67,0.78,7.31,0.21,10.4-1.36l14.31,18.13c-2.21,2.07-3.83,4.8-4.5,7.98
			c-1.77,8.34,3.65,16.56,12.1,18.35c8.45,1.79,16.73-3.52,18.5-11.87c0.21-1.01,0.32-2.03,0.33-3.02l29.24-4.1
			c1.63,5.19,5.97,9.39,11.73,10.61c8.45,1.79,16.73-3.52,18.5-11.87C437.24,515.07,431.82,506.86,423.37,505.07z M179.02,519.23
			l7.12,10.79c-3.11,2.16-5.43,5.43-6.27,9.4c-1.73,8.15,3.42,16.17,11.54,18.2l-3.33,15.72c-8.06-1.4-15.81,3.57-17.78,11.4
			l-28.39-6.01c1.09-6.31-1.87-12.44-7.1-15.71l27.32-44.35c1.65,1.13,3.55,1.97,5.64,2.41
			C171.78,521.93,175.76,521.16,179.02,519.23z M629.02,182.68c-8.45-1.79-16.73,3.52-18.5,11.87c-1.34,6.32,1.45,12.55,6.54,15.99
			l-26.03,34.22c-1.61-1.07-3.45-1.87-5.46-2.3c-8.45-1.79-16.73,3.52-18.5,11.86c-1.49,7.05,2.15,13.98,8.4,17.05l-48.23,115.51
			c-0.58-0.19-1.16-0.36-1.77-0.49c-8.45-1.79-16.73,3.52-18.5,11.86c-1.77,8.34,3.65,16.56,12.1,18.35
			c8.45,1.79,16.73-3.52,18.5-11.87c1.56-7.36-2.47-14.61-9.24-17.45l48.2-115.44c0.84,0.34,1.72,0.62,2.64,0.82
			c8.45,1.79,16.73-3.52,18.5-11.87c1.26-5.96-1.15-11.83-5.7-15.37l26.08-34.29c1.39,0.79,2.92,1.4,4.57,1.74
			c8.45,1.79,16.73-3.52,18.5-11.87C642.88,192.69,637.47,184.47,629.02,182.68z"/>
	</g>
</g>
</svg>
