<?xml version="1.0" encoding="iso-8859-1"?>
<!-- Generator: Adobe Illustrator 19.0.0, SVG Export Plug-In . SVG Version: 6.00 Build 0)  -->
<svg version="1.1" id="Capa_1" xmlns="http://www.w3.org/2000/svg" xmlns:xlink="http://www.w3.org/1999/xlink" x="0px" y="0px"
	 viewBox="0 0 512 512" style="enable-background:new 0 0 512 512;" xml:space="preserve">
<g>
	<g>
		<path d="M486.4,128h-256L128,51.2H25.6C10.24,51.2,0,61.44,0,76.8v358.4c0,15.36,10.24,25.6,25.6,25.6h460.8
			c15.36,0,25.6-10.24,25.6-25.6V153.6C512,138.24,501.76,128,486.4,128z M307.2,409.6H76.8c-15.36,0-25.6-10.24-25.6-25.6
			s10.24-25.6,25.6-25.6h230.4c15.36,0,25.6,10.24,25.6,25.6S320,409.6,307.2,409.6z M435.2,307.2H76.8
			c-15.36,0-25.6-10.24-25.6-25.6c0-15.36,10.24-25.6,25.6-25.6h358.4c15.36,0,25.6,10.24,25.6,25.6
			C460.8,296.96,448,307.2,435.2,307.2z"/>
	</g>
</g>
<g>
</g>
<g>
</g>
<g>
</g>
<g>
</g>
<g>
</g>
<g>
</g>
<g>
</g>
<g>
</g>
<g>
</g>
<g>
</g>
<g>
</g>
<g>
</g>
<g>
</g>
<g>
</g>
<g>
</g>
</svg>
