<?xml version="1.0" encoding="iso-8859-1"?>
<!-- Generator: Adobe Illustrator 19.0.0, SVG Export Plug-In . SVG Version: 6.00 Build 0)  -->
<svg version="1.1" id="Capa_1" xmlns="http://www.w3.org/2000/svg" xmlns:xlink="http://www.w3.org/1999/xlink" x="0px" y="0px"
	 viewBox="0 0 512 512" style="enable-background:new 0 0 512 512;" xml:space="preserve">
<g>
	<g>
		<path d="M386.56,286.72l2.56-23.04C463.36,230.4,512,158.72,512,76.8c0-15.36-12.8-25.6-25.6-25.6h-58.88l2.56-20.48
			C432.64,15.36,419.84,0,404.48,0H107.52c-15.36,0-28.16,12.8-25.6,30.72l2.56,20.48H25.6C12.8,51.2,0,61.44,0,76.8
			c0,81.92,48.64,153.6,120.32,186.88l2.56,23.04c2.56,12.8,12.8,20.48,25.6,20.48h56.32L153.6,384h-38.4
			c-7.68,0-12.8,5.12-12.8,12.8v102.4c0,7.68,5.12,12.8,12.8,12.8h281.6c7.68,0,12.8-5.12,12.8-12.8V396.8
			c0-7.68-5.12-12.8-12.8-12.8h-38.4l-51.2-76.8h56.32C373.76,307.2,386.56,296.96,386.56,286.72z M417.28,102.4h40.96
			c-7.68,38.4-28.16,71.68-56.32,94.72L417.28,102.4z M53.76,102.4h40.96l15.36,94.72C81.92,174.08,58.88,140.8,53.76,102.4z
			 M307.2,230.4L256,194.56l-51.2,35.84l25.6-64L179.2,128h53.76L256,74.24L279.04,128h53.76l-51.2,33.28L307.2,230.4z"/>
	</g>
</g>
<g>
</g>
<g>
</g>
<g>
</g>
<g>
</g>
<g>
</g>
<g>
</g>
<g>
</g>
<g>
</g>
<g>
</g>
<g>
</g>
<g>
</g>
<g>
</g>
<g>
</g>
<g>
</g>
<g>
</g>
</svg>
