<?xml version="1.0" encoding="iso-8859-1"?>
<!-- Generator: Adobe Illustrator 19.0.0, SVG Export Plug-In . SVG Version: 6.00 Build 0)  -->
<svg version="1.1" id="Capa_1" xmlns="http://www.w3.org/2000/svg" xmlns:xlink="http://www.w3.org/1999/xlink" x="0px" y="0px"
	 viewBox="0 0 512 512" style="enable-background:new 0 0 512 512;" xml:space="preserve">
<g>
	<g>
		<path d="M384,0H25.6C10.24,0,0,12.8,0,25.6V384c0,15.36,10.24,25.6,25.6,25.6h25.6V76.8c0-15.36,10.24-25.6,25.6-25.6h332.8V25.6
			C409.6,10.24,399.36,0,384,0z"/>
	</g>
</g>
<g>
	<g>
		<path d="M486.4,102.4H128c-15.36,0-25.6,10.24-25.6,25.6v358.4c0,15.36,10.24,25.6,25.6,25.6h358.4c15.36,0,25.6-10.24,25.6-25.6
			V128C512,112.64,501.76,102.4,486.4,102.4z M332.8,435.2H179.2c-15.36,0-25.6-10.24-25.6-25.6c0-15.36,10.24-25.6,25.6-25.6h153.6
			c15.36,0,25.6,10.24,25.6,25.6C358.4,424.96,348.16,435.2,332.8,435.2z M435.2,332.8h-256c-15.36,0-25.6-10.24-25.6-25.6
			c0-15.36,10.24-25.6,25.6-25.6h256c15.36,0,25.6,10.24,25.6,25.6C460.8,322.56,450.56,332.8,435.2,332.8z M435.2,230.4h-256
			c-15.36,0-25.6-10.24-25.6-25.6c0-15.36,10.24-25.6,25.6-25.6h256c15.36,0,25.6,10.24,25.6,25.6
			C460.8,220.16,450.56,230.4,435.2,230.4z"/>
	</g>
</g>
<g>
</g>
<g>
</g>
<g>
</g>
<g>
</g>
<g>
</g>
<g>
</g>
<g>
</g>
<g>
</g>
<g>
</g>
<g>
</g>
<g>
</g>
<g>
</g>
<g>
</g>
<g>
</g>
<g>
</g>
</svg>
