<?xml version="1.0" encoding="iso-8859-1"?>
<!-- Generator: Adobe Illustrator 19.0.0, SVG Export Plug-In . SVG Version: 6.00 Build 0)  -->
<svg version="1.1" id="Layer_1" xmlns="http://www.w3.org/2000/svg" xmlns:xlink="http://www.w3.org/1999/xlink" x="0px" y="0px"
	 viewBox="0 0 330 330" style="enable-background:new 0 0 330 330;" xml:space="preserve">
<path id="XMLID_31_" d="M326.602,174.506c0.139-0.17,0.26-0.349,0.392-0.524c0.162-0.216,0.33-0.428,0.48-0.654
	c0.144-0.213,0.267-0.435,0.397-0.654c0.12-0.2,0.246-0.396,0.356-0.603c0.12-0.225,0.223-0.457,0.331-0.687
	c0.101-0.214,0.207-0.424,0.299-0.643c0.093-0.225,0.168-0.455,0.25-0.683c0.083-0.233,0.173-0.463,0.245-0.702
	c0.069-0.231,0.121-0.465,0.18-0.699c0.061-0.241,0.128-0.479,0.177-0.725c0.054-0.272,0.086-0.547,0.125-0.822
	c0.03-0.21,0.07-0.416,0.091-0.629c0.098-0.986,0.098-1.979,0-2.965c-0.021-0.213-0.061-0.419-0.091-0.629
	c-0.039-0.274-0.071-0.55-0.125-0.822c-0.049-0.246-0.116-0.483-0.177-0.725c-0.059-0.233-0.11-0.468-0.18-0.699
	c-0.072-0.238-0.162-0.468-0.245-0.702c-0.082-0.228-0.157-0.458-0.25-0.683c-0.092-0.219-0.198-0.429-0.299-0.643
	c-0.108-0.23-0.211-0.461-0.331-0.687c-0.11-0.206-0.236-0.403-0.356-0.603c-0.131-0.219-0.254-0.441-0.397-0.654
	c-0.15-0.226-0.318-0.438-0.48-0.654c-0.132-0.175-0.253-0.354-0.392-0.524c-0.315-0.384-0.646-0.753-0.998-1.103l-54.995-54.997
	c-5.856-5.857-15.354-5.858-21.213-0.001c-5.858,5.858-5.858,15.355,0,21.213L278.788,150H207.42
	c-4.527-12.764-14.656-22.893-27.42-27.42V51.213l29.394,29.393c2.929,2.929,6.768,4.393,10.606,4.393s7.678-1.464,10.606-4.393
	c5.858-5.858,5.858-15.355,0-21.213L175.609,4.396c-0.347-0.346-0.711-0.675-1.09-0.987c-0.099-0.082-0.206-0.151-0.307-0.23
	c-0.285-0.223-0.571-0.444-0.872-0.646c-0.094-0.063-0.194-0.115-0.289-0.175c-0.318-0.203-0.639-0.403-0.973-0.582
	c-0.07-0.038-0.145-0.067-0.216-0.104c-0.363-0.188-0.732-0.368-1.112-0.526c-0.05-0.02-0.103-0.036-0.153-0.056
	c-0.401-0.162-0.809-0.311-1.226-0.439c-0.056-0.017-0.112-0.026-0.167-0.043c-0.411-0.12-0.827-0.23-1.252-0.315
	c-0.128-0.025-0.259-0.037-0.388-0.059c-0.354-0.061-0.706-0.124-1.067-0.159C166.002,0.026,165.502,0,165,0
	s-1.002,0.026-1.497,0.076c-0.368,0.037-0.727,0.1-1.087,0.162c-0.122,0.021-0.247,0.032-0.369,0.056
	c-0.432,0.086-0.854,0.197-1.271,0.32c-0.049,0.014-0.098,0.023-0.146,0.038c-0.426,0.129-0.84,0.282-1.249,0.447
	c-0.042,0.018-0.087,0.03-0.129,0.047c-0.388,0.161-0.765,0.344-1.135,0.536c-0.063,0.033-0.13,0.06-0.194,0.093
	c-0.341,0.184-0.669,0.387-0.994,0.595c-0.088,0.056-0.18,0.105-0.268,0.163c-0.31,0.207-0.605,0.435-0.898,0.665
	c-0.093,0.072-0.19,0.136-0.282,0.211c-0.379,0.312-0.743,0.641-1.09,0.987L99.396,59.393c-5.858,5.858-5.858,15.355,0,21.213
	c5.857,5.857,15.355,5.858,21.213,0L150,51.214v71.366c-12.764,4.527-22.893,14.656-27.42,27.42H51.213l29.394-29.394
	c5.858-5.858,5.858-15.355,0-21.213c-5.857-5.858-15.355-5.858-21.213,0L4.397,154.391c-0.352,0.35-0.683,0.719-0.998,1.103
	c-0.139,0.17-0.26,0.349-0.392,0.524c-0.162,0.216-0.33,0.428-0.48,0.654c-0.144,0.213-0.267,0.435-0.398,0.654
	c-0.12,0.2-0.246,0.396-0.356,0.603c-0.12,0.225-0.223,0.457-0.331,0.687c-0.101,0.214-0.207,0.424-0.299,0.643
	c-0.093,0.225-0.168,0.455-0.25,0.683c-0.083,0.233-0.173,0.463-0.245,0.702c-0.069,0.231-0.121,0.465-0.18,0.699
	c-0.061,0.241-0.128,0.479-0.177,0.725c-0.054,0.272-0.086,0.547-0.125,0.822c-0.03,0.21-0.07,0.416-0.091,0.629
	c-0.098,0.986-0.098,1.979,0,2.965c0.021,0.213,0.061,0.419,0.091,0.629c0.039,0.274,0.071,0.55,0.125,0.822
	c0.049,0.246,0.116,0.483,0.177,0.725c0.059,0.233,0.11,0.468,0.18,0.699c0.072,0.238,0.162,0.468,0.245,0.702
	c0.082,0.228,0.157,0.458,0.25,0.683c0.092,0.219,0.198,0.429,0.299,0.643c0.108,0.23,0.211,0.461,0.331,0.687
	c0.11,0.206,0.236,0.403,0.356,0.603c0.131,0.219,0.254,0.441,0.398,0.654c0.15,0.226,0.318,0.438,0.48,0.654
	c0.132,0.175,0.253,0.354,0.392,0.524c0.316,0.384,0.646,0.753,0.998,1.103l54.997,54.997C62.322,233.536,66.161,235,70,235
	s7.678-1.464,10.606-4.394c5.858-5.858,5.858-15.355,0-21.213L51.213,180h71.367c4.527,12.764,14.656,22.893,27.42,27.42v71.366
	l-29.392-29.392c-5.857-5.858-15.355-5.857-21.213,0c-5.858,5.858-5.858,15.355,0,21.213l54.995,54.997
	c0.347,0.347,0.711,0.676,1.09,0.987c0.092,0.075,0.189,0.138,0.282,0.21c0.293,0.23,0.588,0.458,0.898,0.665
	c0.088,0.058,0.18,0.106,0.268,0.163c0.325,0.208,0.653,0.412,0.994,0.595c0.064,0.034,0.131,0.06,0.194,0.093
	c0.37,0.192,0.747,0.375,1.135,0.536c0.042,0.018,0.087,0.03,0.129,0.047c0.409,0.165,0.823,0.318,1.249,0.447
	c0.049,0.015,0.098,0.023,0.146,0.038c0.418,0.123,0.84,0.233,1.271,0.32c0.122,0.024,0.247,0.035,0.369,0.056
	c0.359,0.063,0.719,0.125,1.087,0.162c0.495,0.05,0.995,0.076,1.497,0.076s1.002-0.026,1.497-0.076
	c0.368-0.037,0.727-0.1,1.087-0.162c0.122-0.022,0.247-0.032,0.369-0.056c0.432-0.086,0.854-0.197,1.271-0.32
	c0.049-0.014,0.098-0.023,0.146-0.038c0.426-0.129,0.84-0.282,1.249-0.447c0.042-0.018,0.087-0.03,0.129-0.047
	c0.388-0.161,0.765-0.344,1.135-0.536c0.063-0.033,0.13-0.06,0.194-0.093c0.341-0.184,0.669-0.387,0.994-0.595
	c0.088-0.056,0.18-0.104,0.268-0.163c0.31-0.207,0.605-0.435,0.898-0.665c0.093-0.072,0.19-0.136,0.282-0.21
	c0.379-0.312,0.743-0.641,1.09-0.987l54.997-54.997c5.858-5.857,5.858-15.355,0-21.213c-5.856-5.857-15.354-5.858-21.213,0
	L180,278.787V207.42c12.764-4.527,22.893-14.656,27.42-27.42h71.368l-29.393,29.394c-5.858,5.858-5.858,15.355,0,21.213
	c2.929,2.929,6.768,4.393,10.607,4.393c3.839,0,7.678-1.465,10.606-4.394l54.995-54.997
	C325.955,175.259,326.286,174.89,326.602,174.506z"/>
<g>
</g>
<g>
</g>
<g>
</g>
<g>
</g>
<g>
</g>
<g>
</g>
<g>
</g>
<g>
</g>
<g>
</g>
<g>
</g>
<g>
</g>
<g>
</g>
<g>
</g>
<g>
</g>
<g>
</g>
</svg>
