<svg xmlns="http://www.w3.org/2000/svg" xmlns:xlink="http://www.w3.org/1999/xlink" viewBox="0 0 400 300" width="729" height="531" class="illustration styles_illustrationTablet__1DWOa"><defs><linearGradient id="linear-gradient" x1="198.04" y1="226.62" x2="231.58" y2="198.85" gradientUnits="userSpaceOnUse"><stop offset="0" stop-color="#fff" stop-opacity="0"></stop><stop offset="1"></stop></linearGradient><linearGradient id="linear-gradient-2" x1="144.4" y1="201.96" x2="171.6" y2="180.98" xlink:href="#linear-gradient"></linearGradient><linearGradient id="linear-gradient-3" x1="88.35" y1="241.38" x2="143.17" y2="208.92" xlink:href="#linear-gradient"></linearGradient><linearGradient id="linear-gradient-4" x1="140.45" y1="269.46" x2="183.01" y2="233.4" xlink:href="#linear-gradient"></linearGradient><linearGradient id="linear-gradient-5" x1="277.83" y1="225.12" x2="314.9" y2="196.51" xlink:href="#linear-gradient"></linearGradient></defs><title>22_Graphic chart_isometric</title><g style="isolation: isolate;"><g id="Layer_1" data-name="Layer 1"><path d="M174.88,23.78V86.2A5.56,5.56,0,0,1,172.06,91L70.48,148.47a5.56,5.56,0,0,1-8.3-4.84V84.42a5.56,5.56,0,0,1,2.71-4.77L166.47,19A5.56,5.56,0,0,1,174.88,23.78Z" fill="#FFBF5B"></path><path d="M96.46,107.52c0-1,.1-2.1.19-3.14q.07-.78.16-1.55c0-.27.06-.53.1-.8.07-.56-.09.63,0,.21l.08-.57c.19-1.29.43-2.57.72-3.84a37.73,37.73,0,0,1,1.15-4.07q.16-.47.34-.93l.19-.49c.07-.17.22-.41-.12.28,0-.1.09-.2.13-.3.27-.61.56-1.2.89-1.78a18,18,0,0,1,1.07-1.67c.37-.52-.32.38,0,.06l.31-.37c.21-.24.42-.47.65-.69s.46-.41.69-.62-.59.42-.13.1l.43-.29a8.37,8.37,0,0,1,.8-.45c.11-.05.58-.26.1-.05s.1,0,.22-.07a8.43,8.43,0,0,1,.88-.24l.7-.14c.11,0,.5-.08.07,0s.09,0,.15,0a11.77,11.77,0,0,1,1.22,0l.63,0c.26,0,1,.19.13,0a23,23,0,0,1,2.29.56l.48.17c.09,0,.75.3.28.11s.09,0,.2.1l.58.28c2.81,1.4,5.34,3.31,8.34,4.33a12.46,12.46,0,0,0,10.42-1.26,19,19,0,0,0,6.74-7.6,41.93,41.93,0,0,0,4.24-14.43c0-.09,0-.18,0-.27a2.69,2.69,0,0,0-2.68-2.68A2.75,2.75,0,0,0,136.39,68c0,.09,0,.18,0,.27s0,.21,0,.32.13-.91.06-.48l0,.26c-.13.91-.3,1.82-.49,2.72q-.4,1.9-1,3.76-.31,1-.67,2-.18.5-.38,1l-.22.53c.32-.83,0-.09,0,.09a24.21,24.21,0,0,1-2.28,4.07L131,83c-.25.35.13-.18.15-.2S131,83,131,83q-.39.47-.8.92t-.76.75l-.43.37a2.59,2.59,0,0,0-.22.18c.05-.05.5-.37.21-.16A12.51,12.51,0,0,1,127,86.26c-.59.28.34-.11-.1,0l-.63.22a10,10,0,0,1-1.21.31,2.2,2.2,0,0,0-.29.05s.71-.07.28,0l-.57,0a8.71,8.71,0,0,1-1.1,0l-.27,0s.73.12.31,0l-.52-.1c-.34-.07-.69-.17-1-.28s-.62-.23-.93-.34.57.25.27.11l-.24-.11-.55-.26c-.65-.33-1.29-.69-1.92-1.06-1.28-.75-2.54-1.53-3.87-2.19a15.89,15.89,0,0,0-11.11-1.5c-6.09,1.53-9.1,8-10.6,13.54a55.46,55.46,0,0,0-1.49,8.19c-.17,1.46-.32,2.95-.34,4.42,0,.07,0,.15,0,.22a2.68,2.68,0,0,0,5.35,0Z" fill="#6e89fe"></path><path d="M131,67.9l15,3.24A1.61,1.61,0,0,0,147.77,69L143,56.68a1.61,1.61,0,0,0-2.57-.63l-10.23,9.07A1.61,1.61,0,0,0,131,67.9Z" fill="#6e89fe"></path><path d="M131.57,82.46c-2.26,3.17-6.36,6.2-13,2.39,0,0,6.39,5.92,12.19,5.5,0,0,4-2.18,7.11-8.35A26.46,26.46,0,0,1,131.57,82.46Z" fill="#3129a3"></path><path d="M98.15,94.38a22.53,22.53,0,0,0-6,4.29c-.26,1.45-.47,2.91-.64,4.37s-.32,2.95-.34,4.42c0,.07,0,.15,0,.22a2.68,2.68,0,0,0,5.35,0c0-1,.1-2.1.19-3.14q.07-.78.16-1.55c0-.23.06-.47.09-.7l.06-.45c.19-1.29.43-2.57.72-3.84a38,38,0,0,1,1.1-3.9Z" fill="#3129a3"></path><path d="M74.06,220.74l111.56,64.93a16.57,16.57,0,0,0,16.6,0L326.67,214a6.64,6.64,0,0,0,0-11.51L211.76,136.31a10.74,10.74,0,0,0-10.71,0l-127,72.94A6.64,6.64,0,0,0,74.06,220.74Z" fill="#6e89fe"></path><polygon points="203.15 205.67 182.22 217.78 208.83 233.27 230.76 221.46 203.15 205.67" opacity="0.5" fill="url(#linear-gradient)" style="mix-blend-mode: multiply;"></polygon><polygon points="151.27 180.13 130.35 192.24 156.95 207.73 178.88 195.93 151.27 180.13" opacity="0.5" fill="url(#linear-gradient-2)" style="mix-blend-mode: multiply;"></polygon><polygon points="186.65 88.14 154.61 106.38 154.61 182.36 182.22 198.15 213.4 179.73 213.4 103.76 186.65 88.14" fill="#FFBF5B"></polygon><polygon points="154.61 106.38 186.65 88.14 213.4 103.76 182.22 122.18 154.61 106.38" fill="#fff" opacity="0.49"></polygon><polygon points="182.22 122.18 182.22 198.15 213.4 179.73 213.4 103.76 182.22 122.18" opacity="0.2"></polygon><polyline points="105.95 119.08 105.95 215.02 133.56 230.81 164.74 212.39 164.74 116.45" fill="#ff734d"></polyline><polygon points="105.95 119.08 137.99 100.84 164.74 116.45 133.56 134.87 105.95 119.08" fill="#ffb5a4"></polygon><polygon points="133.56 134.87 133.56 230.81 164.74 212.39 164.74 116.45 133.56 134.87" fill="#f78b72"></polygon><polyline points="202.34 156.07 202.34 205.37 229.96 221.16 261.13 202.74 261.13 153.44" fill="#a3e271"></polyline><polygon points="202.34 156.07 234.39 137.82 261.13 153.44 229.96 171.86 202.34 156.07" fill="#bfea98"></polygon><polygon points="229.96 171.86 229.96 221.16 261.13 202.74 261.13 153.44 229.96 171.86" fill="#8ad647"></polygon><polyline points="154.61 205.99 154.61 241.39 182.22 257.19 213.4 238.77 213.4 203.37" fill="#ffad4a"></polyline><polygon points="154.61 205.99 186.65 187.75 213.4 203.37 182.22 221.79 154.61 205.99" fill="#fd9"></polygon><polygon points="182.22 221.79 182.22 257.19 213.4 238.77 213.4 203.37 182.22 221.79" fill="#ffc36c"></polygon><path d="M248.8,208.52a11.83,11.83,0,0,0-2.51-3.19,6.88,6.88,0,0,1-2-3.48,67.89,67.89,0,0,1,.92-9.36c-2.18-.46-5.49-1.42-6.59-3.39-.89,4.16-2.72,13.62-2.44,14.14a8.08,8.08,0,0,0,2.16,1.68l.6-5.16.15,5.06a3.13,3.13,0,0,0,.66,1.15,6.28,6.28,0,0,0,1.73,1.15,17.83,17.83,0,0,0,3.68,1.8c.92.28,3.09.82,3.67-.29Z" fill="#3129a3"></path><path d="M257.22,203.24a11.83,11.83,0,0,0-2.51-3.19,6.88,6.88,0,0,1-2-3.48,67.89,67.89,0,0,1,.92-9.36c-2.18-.46-5.49-1.42-6.59-3.39-.89,4.16-2.72,13.62-2.44,14.14a8.08,8.08,0,0,0,2.16,1.68l.6-5.16.15,5.06a3.13,3.13,0,0,0,.66,1.15,6.28,6.28,0,0,0,1.73,1.15,17.83,17.83,0,0,0,3.68,1.8c.92.28,3.09.82,3.67-.29Z" fill="#3129a3"></path><path d="M244.2,131.44S251,142,252.71,143.34c0,0-5.39,1.68-5.63,5.74,0,0-6.2-3.8-7.52-5.86S244.2,131.44,244.2,131.44Z" fill="#ffc36c"></path><path d="M241.74,143.06s15.37,8.34,16.75,16.16-1.73,29.27-3.94,30.35c0,0-7.65-.46-9.37-7,0,0,1.24-9.63,2.81-16.09,0,0-8.47-1.57-13-7-2.72-3.22-1.84-16.11.32-17.22S242.07,135.27,241.74,143.06Z" fill="#d86044"></path><path d="M238.57,145.82s10.72,6.46,12.1,14.28-3.13,34.31-5.33,35.39c0,0-6.78,1.38-8.49-5.11,0,0,1-17.41,2.6-23.87a45.83,45.83,0,0,1-11-9c-2.72-3.22-1.07-12.39,1.09-13.5S238.9,138,238.57,145.82Z" fill="#ea7554"></path><path d="M227.33,147.71s-.77-13.71,2.95-18.44,11.17-6.62,13.07-5.52,2,23.34-1.17,24A36.1,36.1,0,0,1,227.33,147.71Z" fill="#ffc36c"></path><path d="M234.45,131.4c-.09.31-1.53,7.06,2.74,10.76a49.07,49.07,0,0,0,6.8,5.14s-5.38,6-5.2,7.73c0,0-16.75-5.47-11.95-23.8" fill="#ffc36c"></path><path d="M241.9,117.69s.88,8.55-3,10c-2.82,1-4.44-2.66-4.71-4.87a7.39,7.39,0,0,1,3.22-6.72C239.3,114.74,241.63,115.09,241.9,117.69Z" fill="#ffac99"></path><path d="M235.75,120s.77-.33,1.09,0-.35,1.63.71,1.73,3.88.18,5.66-1.73-.08-6.76-3.73-7.3-9.06,2.62-10,7.69-.82,5.39-2.48,6.84-3.68,1.47-2.65,4.26,4.34,1.76,4.28,4.19,3.17,5.2,6.75,3.32a4.37,4.37,0,0,0,.88-7.5C234.06,129.73,233.63,121.9,235.75,120Z" fill="#3129a3"></path><polyline points="245.03 159.04 236.44 153.99 251.73 144.01 259.85 147.23" fill="#3129a3"></polyline><path d="M245,158.18c-.14-.65,4.15-12.72,4.15-12.72l17.68-10-5.4,13.76L245,159Z" fill="#FFBF5B"></path><ellipse cx="255.92" cy="148.9" rx="2.09" ry="1.06" transform="translate(11.69 316.27) rotate(-64.62)" fill="#3129a3"></ellipse><polygon points="105.95 215.02 85.03 227.13 111.64 242.62 133.56 230.81 105.95 215.02" opacity="0.5" fill="url(#linear-gradient-3)" style="mix-blend-mode: multiply;"></polygon><polygon points="154.49 240.78 133.56 252.9 160.17 268.38 182.1 256.58 154.49 240.78" opacity="0.5" fill="url(#linear-gradient-4)" style="mix-blend-mode: multiply;"></polygon><polygon points="292.39 201.22 264.53 219.47 279.61 231.45 318.97 209.3 292.39 201.22" opacity="0.5" fill="url(#linear-gradient-5)" style="mix-blend-mode: multiply;"></polygon><path d="M292.49,178V206.9s27.74,1.54,27.74,0V178" fill="#FFBF5B"></path><ellipse cx="306.36" cy="206.65" rx="13.87" ry="6.34" fill="#FFBF5B"></ellipse><ellipse cx="306.36" cy="178.04" rx="13.87" ry="6.34" fill="#3129a3"></ellipse><path d="M297.72,183l.1.05c.53.19,1.07.35,1.62.49l-3.77-31.61a1.89,1.89,0,0,0-1.93.36l3.87,30.65Z" fill="#f78b72"></path><path d="M302,183.94l1.18-29.67a1.9,1.9,0,0,0-2,0l-1,29.37A15.55,15.55,0,0,0,302,183.94Z" fill="#f78b72"></path><path d="M306.36,184.37l3.81-30.93,7.72,4.08-3.12,26A23.6,23.6,0,0,1,306.36,184.37Z" fill="#fcb749"></path></g></g></svg>