<svg height="512pt" viewBox="0 -22 512 512" width="512pt" xmlns="http://www.w3.org/2000/svg"><path d="m215.167969 189.589844h81.667969v72.785156h-81.667969zm0 0"/><path d="m104.5 189.589844h80.667969v72.785156h-80.667969zm0 0"/><path d="m104.5 292.375h80.667969v80.214844h-80.667969zm0 0"/><path d="m443.53125 53.589844v53.589844h-30v-53.589844h-29.78125v53.589844h-30v-53.589844h-195.5v53.589844h-30v-53.589844h-29.78125v53.589844h-30v-53.589844h-68.46875v106h512v-106zm0 0"/><path d="m437.5 402.589844h-363v-213h-74.5v279h512v-279h-74.5zm0 0"/><path d="m326.832031 189.589844h80.667969v72.785156h-80.667969zm0 0"/><path d="m326.832031 292.375h80.667969v80.214844h-80.667969zm0 0"/><path d="m215.167969 292.375h81.667969v80.214844h-81.667969zm0 0"/><path d="m68.46875 0h30v53.589844h-30zm0 0"/><path d="m128.25 0h30v53.589844h-30zm0 0"/><path d="m353.75 0h30v53.589844h-30zm0 0"/><path d="m413.53125 0h30v53.589844h-30zm0 0"/></svg>