<svg id="Capa_1" enable-background="new 0 0 512.006 512.006" height="512" viewBox="0 0 512.006 512.006" width="512" xmlns="http://www.w3.org/2000/svg"><g><path d="m491.612 34.396c-2.813-2.813-6.629-4.395-10.607-4.395h-60.002v-15.001c0-8.284-6.717-15-15-15h-300c-8.284 0-15 6.716-15 15v15.002h-60.002c-3.979 0-7.795 1.582-10.607 4.395-2.814 2.813-4.394 6.629-4.393 10.608l.004 44.997c0 33.084 26.916 60 60 60h52.813c23.787 28.764 57.127 49.349 95.109 56.863l-23.53 23.529c-3.22 3.219-4.803 7.726-4.303 12.251l9.855 89.355h100.107l9.855-89.355c.5-4.525-1.083-9.032-4.303-12.251l-23.53-23.529c37.982-7.515 71.322-28.1 95.109-56.863h52.813c33.084 0 60-26.916 60-60l.004-44.997c.001-3.979-1.578-7.795-4.392-10.609zm-415.607 85.606c-16.542 0-30-13.458-30-30l-.003-30h45.69c1.94 21.436 7.986 41.704 17.362 60zm389.996-30c0 16.542-13.458 30-30 30h-33.051c9.377-18.296 15.423-38.564 17.363-60h45.691z"/><path d="m376.011 482.006h-18.291l-27.163-108.645c-1.669-6.677-7.669-11.361-14.552-11.361h-120.006c-6.883 0-12.883 4.685-14.552 11.362l-27.161 108.643h-18.293c-8.284 0-15 6.716-15 15 0 8.285 6.716 15 15 15h240.018c8.284 0 15-6.715 15-15 0-8.283-6.716-14.999-15-14.999zm-105.01-30.003h-29.996c-8.285 0-15-6.716-15-15s6.715-15 15-15h29.996c8.284 0 15 6.716 15 15s-6.716 15-15 15z"/></g></svg>