<svg fill="#000000" xmlns="http://www.w3.org/2000/svg"  viewBox="0 0 50 50" width="500px" height="500px"><path fill="none" stroke="#000000" stroke-linecap="round" stroke-miterlimit="10" stroke-width="2" d="M49,5v40H1V5H49z"/><path d="M17.318,18.269c0.195-0.182,0.458-0.297,0.721-0.268c0.267,0.01,0.518,0.127,0.698,0.323l10.294,11.23l4.261-4.261c0.391-0.391,1.023-0.391,1.414,0L46,36.586V8H4v22.698L17.318,18.269z M35,15c1.657,0,3,1.343,3,3s-1.343,3-3,3s-3-1.343-3-3S33.343,15,35,15z"/><path d="M34 27.414L26.414 35 23.586 35 27.616 30.97 17.945 20.42 4 33.435 4 42 46 42 46 39.414z"/></svg>