<svg fill="#000000" xmlns="http://www.w3.org/2000/svg"  viewBox="0 0 24 24" width="24px" height="24px"><path fill="none" stroke="#000000" stroke-miterlimit="10" stroke-width="2" d="M17 3h2c1.105 0 2 .895 2 2v2h-4M14 21H5c-1.105 0-2-.895-2-2v-2h10"/><path fill="none" stroke="#000000" stroke-miterlimit="10" stroke-width="2" d="M15.027 20.986c-1.104.015-2.012-.868-2.027-1.972l-.028-3M19 3H8C6.895 3 6 3.895 6 5v12"/><path fill="none" stroke="#000000" stroke-miterlimit="10" stroke-width="2" d="M14,21h1c1.105,0,2-0.895,2-2V5c0-1.105,0.895-2,2-2"/></svg>