<?xml version="1.0" encoding="iso-8859-1"?>
<!-- Generator: Adobe Illustrator 17.1.0, SVG Export Plug-In . SVG Version: 6.00 Build 0)  -->
<!DOCTYPE svg PUBLIC "-//W3C//DTD SVG 1.1//EN" "http://www.w3.org/Graphics/SVG/1.1/DTD/svg11.dtd">
<svg version="1.1" id="Capa_1" xmlns="http://www.w3.org/2000/svg" xmlns:xlink="http://www.w3.org/1999/xlink" x="0px" y="0px"
	 viewBox="0 0 425.139 425.139" style="enable-background:new 0 0 425.139 425.139;" xml:space="preserve">
<path id="XMLID_103_" d="M159.171,184.204c0,4.971-4.029,9-9,9H71.397c-4.971,0-9-4.029-9-9s4.029-9,9-9h78.774
	C155.142,175.204,159.171,179.233,159.171,184.204z M131.454,212.978H90.116c-4.971,0-9,4.029-9,9s4.029,9,9,9h41.338
	c4.971,0,9-4.029,9-9S136.424,212.978,131.454,212.978z M422.25,330.891c3.649,3.375,3.871,9.068,0.496,12.718
	c-15.011,16.229-39.605,14.724-70.741,12.82c-37.931-2.321-85.136-5.207-135.15,21.88c-2.674,1.447-5.898,1.447-8.572,0
	c-20.516-11.112-40.563-17.18-59.688-20.312v41.263c0,3.188-1.687,6.139-4.434,7.756c-2.747,1.616-6.145,1.66-8.933,0.114
	l-24.442-13.563l-24.445,13.563c-1.359,0.754-2.863,1.13-4.366,1.13c-1.58,0-3.159-0.415-4.566-1.244
	c-2.747-1.618-4.434-4.567-4.434-7.756v-42.822c-31.061,1.902-55.598,3.372-70.582-12.829c-3.375-3.649-3.153-9.343,0.496-12.719
	c3.65-3.372,9.343-3.152,12.718,0.496c9.217,9.965,30.052,8.689,56.428,7.076c37.1-2.27,87.551-5.353,140.534,21.762
	c52.983-27.115,103.436-24.032,140.535-21.762c26.377,1.613,47.212,2.888,56.428-7.076
	C412.908,327.736,418.602,327.517,422.25,330.891z M130.595,355.829c-13.865-1.105-27.136-0.938-39.62-0.387v28.532l15.444-8.569
	c2.716-1.506,6.017-1.505,8.733,0l15.442,8.569V355.829z M265.965,146.428c0,4.971,4.029,9,9,9h78.774c4.971,0,9-4.029,9-9
	s-4.029-9-9-9h-78.774C269.995,137.428,265.965,141.458,265.965,146.428z M425.139,25.88v273.557c0,2.266-0.854,4.448-2.393,6.111
	c-15.011,16.227-39.605,14.723-70.741,12.819c-37.922-2.318-85.123-5.203-135.125,21.866c-0.098,0.054-0.197,0.105-0.296,0.154
	c-1.285,0.642-2.655,0.947-4.007,0.947c-0.627,0-2.549-0.161-4.42-1.156c-50.157-26.655-97.125-24.128-135.022-21.812
	c-31.138,1.904-55.731,3.407-70.741-12.819C0.854,303.885,0,301.702,0,299.436V25.878c0-3.172,1.669-6.109,4.395-7.732
	c2.725-1.623,6.103-1.69,8.892-0.182c50.013,27.088,97.22,24.2,135.148,21.881c26.927-1.646,48.961-2.994,64.135,7.168
	c15.174-10.163,37.207-8.814,64.134-7.167c37.934,2.323,85.137,5.207,135.149-21.88c2.789-1.51,6.167-1.441,8.892,0.182
	C423.469,19.77,425.139,22.708,425.139,25.88z M203.568,62.735c-10.142-7.609-29.736-6.412-54.035-4.924
	C114.542,59.949,67.669,62.816,18,40.382v255.096c10.143,7.607,29.738,6.409,54.035,4.924c11.057-0.677,23.304-1.426,36.447-1.426
	c28.449,0,61.112,3.509,95.086,18.854V62.735z M407.139,40.384c-49.669,22.434-96.542,19.567-131.534,17.429
	c-24.3-1.485-43.894-2.685-54.036,4.924v255.093c49.67-22.433,96.544-19.568,131.535-17.428c24.297,1.485,43.893,2.684,54.036-4.924
	V40.384z M353.74,175.204h-78.774c-4.971,0-9,4.029-9,9s4.029,9,9,9h78.774c4.971,0,9-4.029,9-9S358.71,175.204,353.74,175.204z
	 M150.171,137.428H71.397c-4.971,0-9,4.029-9,9s4.029,9,9,9h78.774c4.971,0,9-4.029,9-9S155.142,137.428,150.171,137.428z
	 M335.021,212.978h-41.336c-4.971,0-9,4.029-9,9s4.029,9,9,9h41.336c4.971,0,9-4.029,9-9S339.992,212.978,335.021,212.978z"/>
<g>
</g>
<g>
</g>
<g>
</g>
<g>
</g>
<g>
</g>
<g>
</g>
<g>
</g>
<g>
</g>
<g>
</g>
<g>
</g>
<g>
</g>
<g>
</g>
<g>
</g>
<g>
</g>
<g>
</g>
</svg>
