<?xml version="1.0" encoding="iso-8859-1"?>
<!-- Generator: Adobe Illustrator 19.0.0, SVG Export Plug-In . SVG Version: 6.00 Build 0)  -->
<svg version="1.1" id="Capa_1" xmlns="http://www.w3.org/2000/svg" xmlns:xlink="http://www.w3.org/1999/xlink" x="0px" y="0px"
	 viewBox="0 0 512.432 512.432" style="enable-background:new 0 0 512.432 512.432;" xml:space="preserve">
<g>
	<g>
		<path d="M504.536,468.48l-33.28-33.28c10.24-15.36,15.36-33.28,15.36-51.2c0-56.32-46.08-102.4-102.4-102.4
			s-102.4,46.08-102.4,102.4s46.08,102.4,102.4,102.4c17.92,0,35.84-5.12,51.2-15.36l33.28,33.28c5.12,5.12,20.48,15.36,35.84,0
			C514.776,494.08,514.776,478.72,504.536,468.48z M384.216,435.2c-28.16,0-51.2-23.04-51.2-51.2s23.04-51.2,51.2-51.2
			s51.2,23.04,51.2,51.2S412.376,435.2,384.216,435.2z"/>
	</g>
</g>
<g>
	<g>
		<path d="M384.216,0h-358.4c-15.36,0-25.6,10.24-25.6,25.6v460.8c0,15.36,10.24,25.6,25.6,25.6h273.92
			c-40.96-28.16-69.12-74.24-69.12-128c0-84.48,69.12-153.6,153.6-153.6c7.68,0,17.92,0,25.6,2.56V25.6
			C409.816,10.24,399.576,0,384.216,0z M205.016,204.8h-128c-15.36,0-25.6-12.8-25.6-25.6c0-15.36,10.24-25.6,25.6-25.6h128
			c15.36,0,25.6,10.24,25.6,25.6C230.616,192,220.376,204.8,205.016,204.8z M333.016,102.4h-256c-15.36,0-25.6-12.8-25.6-25.6
			c0-15.36,10.24-25.6,25.6-25.6h256c15.36,0,25.6,10.24,25.6,25.6C358.616,89.6,348.376,102.4,333.016,102.4z"/>
	</g>
</g>
<g>
</g>
<g>
</g>
<g>
</g>
<g>
</g>
<g>
</g>
<g>
</g>
<g>
</g>
<g>
</g>
<g>
</g>
<g>
</g>
<g>
</g>
<g>
</g>
<g>
</g>
<g>
</g>
<g>
</g>
</svg>
