<?xml version="1.0" encoding="utf-8"?>
<!-- Generator: Adobe Illustrator 23.0.1, SVG Export Plug-In . SVG Version: 6.00 Build 0)  -->
<svg version="1.1" id="LogoOfc__x28_NoName_x29__1_"
	 xmlns="http://www.w3.org/2000/svg" xmlns:xlink="http://www.w3.org/1999/xlink" x="0px" y="0px" viewBox="0 0 720 720"
	 style="enable-background:new 0 0 720 720;" xml:space="preserve">
<style type="text/css">
	.st0{fill:#23272A;}
	.st1{fill-rule:evenodd;clip-rule:evenodd;fill:#FFBF5B;}
	.st2{fill:#F6F6F8;}
	.st3{fill:#216AA7;}
	.st4{fill-rule:evenodd;clip-rule:evenodd;fill:#23272A;}
</style>
<g id="Elipse_1">
	<g>
		<circle class="st0" cx="360.9" cy="359.68" r="358.7"/>
	</g>
</g>
<g id="Coruja_1_">
	<polygon class="st1" points="420.96,522.16 420.07,521.41 522.42,402.47 523.3,403.21 	"/>
	<g id="Corpo_2_">
		<g id="Pés">
			<g>
				<path class="st2" d="M436.71,582.9c-1.7-3.6-5.53-6.48-12.51-7.96c-11.06-2.35-18.88,3.28-30.7,1.14
					c-4.01-0.73-6.52-1.81-6.82-3.41c-0.36-1.92,2.58-3.95,3.41-4.55c3.16-2.27,9.04-11.7,13.64-22.74c2.05-4.92,9.38-24,3.41-28.43
					c-4.12-3.05-13.23,1.89-21.6,7.96c-28.76,20.84-44.09,61.95-34.11,70.49c1.26,1.08,6.2,1.75,12.51,1.14
					c4.63-0.45,9.38-1.4,11.37-2.27c1.65-0.73,4.2-2.06,6.82-1.14c2.7,0.95,4.97,4.13,4.55,6.82c-0.34,2.15-2.52,3.17-4.55,5.69
					c-1.75,2.16-2.49,3.9-2.27,4.55c1.24,3.65,15.23,4.81,22.74-2.27c1.3-1.22,5.69-5.8,4.55-10.23c-0.51-1.97-2.71-3.67-2.27-4.55
					c0.42-0.85,2.59-0.23,5.68,0c4.1,0.3,6.68-0.52,7.96,1.14c0.98,1.26,1.03,3.49,0,4.55c-1.05,1.08-3.03,0.37-3.41,1.14
					c-0.47,0.94,1.68,3.57,4.55,4.55c5.16,1.76,11.53-2.26,14.78-6.82C436.34,595.02,439.5,588.82,436.71,582.9z"/>
			</g>
		</g>
		<g id="Corpo">
			<g>
				<path class="st3" d="M532.21,123.55c-3.73-4.35-9.16-9.06-15.92-13.64c-9.65-6.55-20.07-11.05-34.11-14.78
					c-33.04-8.79-59.72-7.07-76.18-2.27c-6.68,1.94-12.19,4.19-17.06,6.82c-17.91,9.71-27.93,23.76-35.25,36.38
					c-12.13,20.91-27.53,55.01-31.84,73.91c-1.53,6.7-6.69,15.82-10.23,20.47c-0.69,0.91-1.46,1.67-2.27,2.27
					c-2.15,1.61-5.06,2.18-5.68,2.27c-4.64,0.7-13.22,4.77-21.6,9.1c-10.5,5.43-22.21,14.21-34.11,28.43
					c-17.62,21.05-24.66,43.52-29.56,65.95c-5.91,27.07-6.66,53.89-10.23,77.32c-1.17,7.68-2.06,28.24-2.27,44.34
					c-0.1,7.71,0.14,15.51,3.41,25.01c4.9,14.27,15.11,23.41,20.47,32.97c7.47,13.33,10.26,26.69,10.23,32.97
					c-0.03,8.04-1.87,17.03-5.69,25.01c-3.11,6.51-6.97,11.45-5.69,18.19c0.99,5.2,6.63,9.37,5.69,14.78
					c-0.6,3.41-3.29,4.78-4.55,7.96c-0.62,1.58-1.1,6.28,0,11.37c0.52,2.43,2.39,5.53,2.27,9.1c-0.09,2.84-1.53,4.75-1.14,7.96
					c0.51,4.17,3.58,7.13,4.55,7.96c8.69,7.46,28.9-1.55,39.8-6.82c28.5-13.8,58.09-31.38,68.22-40.93
					c14.94-14.09,31.01-34.06,39.8-53.44c3.48-7.68,8.9-18.16,9.1-19.33c0.11-0.64,0.45-3.02,2.27-4.55
					c1.07-0.89,2.54-1.22,2.87-1.28c3.63-0.67,12.66-6.09,21.01-11.22c12.78-7.86,30.4-21.62,45.48-38.66
					c17.52-19.79,34.66-47.81,47.75-87.55c6.9-20.94,9.1-38.69,13.64-60.26c7-33.21,21.92-95.75,23.88-143.26
					C550.09,166.16,548.19,142.18,532.21,123.55z"/>
			</g>
		</g>
	</g>
	<g id="Rosto_1_">
		<g id="Forma_15">
			<g>
				<path class="st2" d="M418.36,104.58c-12.06-0.41-23.82,2.44-34.06,8.51c-7.09,4.21-14.56,10.74-21.28,21.28
					c-16.74,26.24-18.78,67.95,4.26,97.91c11.27,14.66,27.26,24.75,45.41,29.8c2.79,1.1,5.63,2.05,8.51,2.84
					c8.3,2.27,16.87,3.2,25.54,2.84V121.61C437.28,115.94,427.82,110.26,418.36,104.58z"/>
			</g>
		</g>
		<g id="Forma_15_1_">
			<g>
				<path class="st2" d="M528.53,134.38c-6.73-10.55-14.19-17.08-21.28-21.28c-10.23-6.07-22-8.92-34.06-8.51
					c-9.46,5.68-18.92,11.35-28.38,17.03v146.15c8.68,0.36,17.24-0.57,25.54-2.84c2.89-0.79,5.72-1.74,8.51-2.84
					c18.14-5.05,34.13-15.14,45.41-29.8C547.31,202.33,545.28,160.62,528.53,134.38z"/>
			</g>
		</g>
	</g>
	<g id="Olhos_x2F_Bico_1_">
		<g id="Elipse_3">
			<g>
				<ellipse class="st4" cx="409.08" cy="173.41" rx="9.19" ry="12"/>
			</g>
		</g>
		<g id="Elipse_3_1_">
			<g>
				<ellipse class="st4" cx="482.9" cy="173.41" rx="9.24" ry="12"/>
			</g>
		</g>
		<g id="Forma_14">
			<g>
				<path class="st0" d="M450.99,208.17c-1.75-2.71-3.68-4.08-5.68-4.26c-3.57-0.32-6.26,3.05-7.09,4.26
					c-2.94,4.27-2.13,9.76,0,17.03c2.93,9.98,5.17,15.62,7.09,15.61c2.43-0.01,4.56-6.43,7.09-18.45
					C453.2,218.62,454.12,213.01,450.99,208.17z"/>
			</g>
		</g>
	</g>
</g>
<g id="Constelação">
	<g>
		<path class="st1" d="M423.51,504.84c-8.47-1.79-16.77,3.53-18.54,11.89c-0.48,2.27-0.42,4.52,0.08,6.64l-29.06,4.07
			c-0.45-6.77-5.37-12.71-12.41-14.2c-4.84-1.02-9.62,0.28-13.16,3.14l-14.21-17.99c3.52-2.14,6.19-5.63,7.1-9.95
			c1.77-8.36-3.66-16.6-12.13-18.39c-5.25-1.11-10.43,0.51-14.03,3.9l-37.96-49.49c3.68-2.12,6.48-5.69,7.42-10.13
			c1.77-8.36-3.66-16.6-12.13-18.39c-3.02-0.64-6-0.36-8.69,0.62l-25.38-100.06c5.26-1.59,9.5-5.87,10.7-11.56
			c1.77-8.36-3.66-16.6-12.13-18.39c-7.08-1.5-14.03,1.99-17.16,8.06l-57.56-28.47c0.19-0.57,0.36-1.15,0.49-1.76
			c1.77-8.36-3.66-16.6-12.13-18.39c-8.47-1.79-16.77,3.53-18.54,11.89c-1.77,8.36,3.66,16.6,12.13,18.39
			c2.25,0.48,4.48,0.44,6.58-0.01l-3.19,36.48c-6.84,0.41-12.82,5.25-14.3,12.2c-1.77,8.36,3.66,16.6,12.13,18.39
			c0.49,0.1,0.98,0.18,1.47,0.24l19.58,166.84c-6.42,0.79-11.92,5.49-13.32,12.11c-1.25,5.9,1.09,11.72,5.55,15.27l-27.45,44.57
			c-1.26-0.67-2.63-1.18-4.1-1.49c-8.47-1.79-16.77,3.53-18.54,11.89c-1.77,8.36,3.66,16.6,12.13,18.39
			c8.28,1.75,16.38-3.3,18.39-11.34l28.45,6.03c-1.41,8.16,3.94,16.07,12.22,17.82c8.47,1.79,16.77-3.53,18.54-11.89
			c1.73-8.17-3.42-16.21-11.57-18.24l3.34-15.76c8.27,1.44,16.24-3.81,17.97-11.98c1.77-8.36-3.66-16.6-12.13-18.39
			c-4.03-0.85-8.01-0.08-11.28,1.85l-7.13-10.82c3.11-2.16,5.45-5.44,6.29-9.42c1.77-8.36-3.66-16.6-12.13-18.39
			c-1.37-0.29-2.73-0.38-4.07-0.31L150.1,323.63c7.49,0.31,14.3-4.73,15.89-12.21c1.77-8.36-3.66-16.6-12.13-18.39
			c-1.03-0.22-2.06-0.33-3.08-0.34l3.21-36.74c4.37-1.3,8.04-4.46,9.87-8.75l57.48,28.43c-0.38,0.89-0.68,1.82-0.89,2.8
			c-1.77,8.36,3.66,16.6,12.13,18.39c2.29,0.49,4.57,0.43,6.72-0.04L264.72,397c-4.34,1.96-7.72,5.85-8.77,10.83
			c-1.77,8.36,3.66,16.6,12.13,18.39c3.55,0.75,7.07,0.24,10.09-1.21l38.18,49.78c-1.79,1.96-3.11,4.39-3.7,7.16
			c-1.77,8.36,3.66,16.6,12.13,18.39c3.68,0.78,7.33,0.21,10.43-1.36l14.35,18.17c-2.21,2.08-3.84,4.81-4.51,8
			c-1.77,8.36,3.66,16.6,12.13,18.39c8.47,1.79,16.77-3.53,18.54-11.89c0.22-1.02,0.32-2.03,0.33-3.03l29.31-4.11
			c1.63,5.2,5.99,9.41,11.75,10.63c8.47,1.79,16.77-3.53,18.54-11.89C437.41,514.87,431.98,506.64,423.51,504.84z M178.6,519.03
			l7.13,10.82c-3.11,2.16-5.45,5.44-6.29,9.42c-1.73,8.17,3.42,16.21,11.57,18.24l-3.34,15.76c-8.08-1.41-15.85,3.58-17.82,11.43
			l-28.45-6.03c1.1-6.32-1.87-12.47-7.11-15.75l27.38-44.46c1.66,1.13,3.56,1.97,5.65,2.41
			C171.35,521.74,175.33,520.97,178.6,519.03z M629.64,181.71c-8.47-1.79-16.77,3.53-18.54,11.89c-1.34,6.33,1.45,12.58,6.56,16.03
			l-26.09,34.3c-1.62-1.07-3.46-1.88-5.48-2.31c-8.47-1.79-16.77,3.53-18.54,11.89c-1.5,7.06,2.15,14.02,8.42,17.09l-48.34,115.78
			c-0.58-0.19-1.17-0.37-1.78-0.49c-8.47-1.79-16.77,3.53-18.54,11.89c-1.77,8.36,3.66,16.6,12.13,18.39
			c8.47,1.79,16.77-3.53,18.54-11.89c1.56-7.37-2.48-14.64-9.26-17.49l48.31-115.71c0.84,0.34,1.72,0.62,2.65,0.82
			c8.47,1.79,16.77-3.53,18.54-11.89c1.26-5.97-1.15-11.86-5.71-15.4l26.14-34.37c1.39,0.8,2.93,1.4,4.58,1.75
			c8.47,1.79,16.77-3.53,18.54-11.89C643.54,191.74,638.11,183.5,629.64,181.71z"/>
	</g>
</g>
</svg>
